inDegrees=no
num_controls=7
num_derivatives=13
num_iterations=139
num_multipliers=7
num_parameters=0
num_slacks=7
num_states=26
objective=0.477164
objective_accelerations=0.044214
objective_balance=0.003665
objective_effort=0.040365
objective_height=0.383258
objective_ligament=0.005662
solver_duration=1958.142855
status=Solve_Succeeded
success=true
DataType=double
version=3
OpenSimVersion=4.5
endheader
time	/jointset/ground_pelvis/pelvis_tilt/value	/jointset/ground_pelvis/pelvis_tx/value	/jointset/ground_pelvis/pelvis_ty/value	/jointset/hip_l/hip_flexion_l/value	/jointset/hip_l/hip_adduction_l/value	/jointset/hip_l/hip_rotation_l/value	/jointset/back/lumbar_extension/value	/jointset/patellofemoral_l/patellar_flexion_l/value	/jointset/knee_l/knee_flexion_l/value	/jointset/knee_l/knee_adduction_l/value	/jointset/knee_l/knee_rotation_l/value	/jointset/ankle_l/ankle_angle_l/value	/jointset/subtalar_l/subtalar_angle_l/value	/jointset/ground_pelvis/pelvis_tilt/speed	/jointset/ground_pelvis/pelvis_tx/speed	/jointset/ground_pelvis/pelvis_ty/speed	/jointset/hip_l/hip_flexion_l/speed	/jointset/hip_l/hip_adduction_l/speed	/jointset/hip_l/hip_rotation_l/speed	/jointset/back/lumbar_extension/speed	/jointset/patellofemoral_l/patellar_flexion_l/speed	/jointset/knee_l/knee_flexion_l/speed	/jointset/knee_l/knee_adduction_l/speed	/jointset/knee_l/knee_rotation_l/speed	/jointset/ankle_l/ankle_angle_l/speed	/jointset/subtalar_l/subtalar_angle_l/speed	/forceset/tau_hip_flexion_l	/forceset/tau_hip_adduction_l	/forceset/tau_hip_rotation_l	/forceset/tau_knee_flexion_l	/forceset/tau_ankle_angle_l	/forceset/tau_subtalar_angle_l	/forceset/tau_lumbar_extension	lambda_cid13_p0	lambda_cid13_p1	lambda_cid13_p2	lambda_cid13_p3	lambda_cid13_p4	lambda_cid13_p5	lambda_cid14_p0	/jointset/ground_pelvis/pelvis_tilt/accel	/jointset/ground_pelvis/pelvis_tx/accel	/jointset/ground_pelvis/pelvis_ty/accel	/jointset/hip_l/hip_flexion_l/accel	/jointset/hip_l/hip_adduction_l/accel	/jointset/hip_l/hip_rotation_l/accel	/jointset/back/lumbar_extension/accel	/jointset/patellofemoral_l/patellar_flexion_l/accel	/jointset/knee_l/knee_flexion_l/accel	/jointset/knee_l/knee_adduction_l/accel	/jointset/knee_l/knee_rotation_l/accel	/jointset/ankle_l/ankle_angle_l/accel	/jointset/subtalar_l/subtalar_angle_l/accel	gamma_cid13_p0	gamma_cid13_p1	gamma_cid13_p2	gamma_cid13_p3	gamma_cid13_p4	gamma_cid13_p5	gamma_cid14_p0
0	-0.03678430149169926	0.05666067696089296	0.9203422731333061	0.3085816938045678	-0.2956291512752751	-0.3013597770112338	-0.3879492264334186	0.2499269421185233	0.2499269421184919	-0.1745327729300749	-0.1742898975749525	-0.0008036623358878681	0.0004461639245915092	0	0	0	0	0	0	0	0	0	0	0	0	0	0.07038284583694372	-0.04758558340190248	-0.0193922426547104	-0.2395840142453165	0.1835150765883818	-0.01241664105574022	0.003439892495969059	15.59620837899782	0.05732306678452719	2.511451833005075	11.46090450912695	-621.6006656807114	-74.77989350584355	-23.1886779281905	-0.9791890225559966	-2.060745977968632	-0.9262827707785787	9.313874269541573	-0.8381403699459791	3.309146387080795	-7.316185840761426	9.426946172809766	9.426946172809572	1.290609683044	-0.1039070405056684	1.617202022250099	-0.3498927896950237	2.427235191525056e-09	1.555724707896426e-07	6.226741478307648e-08	-1.327898630874707e-08	1.317835589466066e-07	6.42006477603127e-09	3.797140535186076e-09
0.01	-0.03682955116881265	0.05655950681187976	0.9202970239348787	0.3090352065718696	-0.2956711709100965	-0.3011937327890266	-0.3883131068514374	0.2503887960170457	0.2503887960170126	-0.1744718596110775	-0.1742916490824125	-0.0007244042626721862	0.0004279910997311445	-0.009009417877732103	-0.02006580992876557	-0.00901000349712845	0.09018724814604663	-0.008356860325525359	0.03304664782827916	-0.07222806022661257	0.09193251275402736	0.09193251275402881	0.01212386399956637	-0.0003439862017010026	0.01587016417999331	-0.003577972280921983	0.06553892837909327	-0.05595539033081359	-0.01891966153149842	-0.237283254765617	0.1798046241937221	-0.002013940605144089	0.008561589260810496	14.68140376260279	-4.219164784475081	3.100457679480261	10.00014452398658	-624.6213874216998	-83.35266111176651	-23.19405675945872	-0.8557493954071991	-1.954268177237294	-0.8823573542541415	8.79384791733769	-0.8274334755029251	3.27809298171655	-7.093912605530432	9.010663025205343	9.010663025205567	1.164487734145086	0.001308305904195926	1.574710261731317	-0.3532926270533944	-3.011083722887229e-08	1.49949537079075e-07	1.370566563696481e-07	1.954307071247853e-08	-6.087330683568426e-10	-4.406692884106003e-08	-4.971399045220455e-09
0.02	-0.03696368126974154	0.05626272462819498	0.9201628750584649	0.3103751313866506	-0.2957953540705047	-0.3007020882883326	-0.3893828271701145	0.2517568268828055	0.2517568268828039	-0.1742914650568962	-0.174296649908709	-0.0004858872184859602	0.0003757299161089725	-0.01777608475634944	-0.03912240693431533	-0.01777993559725587	0.1772824095001257	-0.01643270511694742	0.06512005569716089	-0.1411679801298733	0.1812353934483023	0.1812353934483054	0.02389624702842333	-0.0006498637671453085	0.03185179419427383	-0.006817671752350235	0.06069501092128209	-0.06432519725969049	-0.01844708040827421	-0.2349824952858781	0.1760941717990981	0.008388759845499557	0.01368328602565415	13.8391869509997	-8.507147437405779	3.689908321933129	8.427641269606596	-626.5553035668564	-91.83553610971298	-23.20985399097921	-0.9306388227321545	-1.858903393326254	-0.878268491378387	8.695456911148179	-0.7819372631253062	3.114498395201262	-6.658557776090552	8.901019760859436	8.901019760859297	1.22031348890219	-0.09628531325444856	1.639495189106675	-0.2822382277965639	-6.264890964926962e-08	1.443266033685073e-07	2.118458979562196e-07	5.236512773370413e-08	-1.330010250833203e-07	-9.455392245815133e-08	-1.373993862562698e-08
0.03	-0.03718433371948302	0.05577989094213505	0.9199419174024753	0.312571693812903	-0.2959988075261319	-0.299894884261682	-0.3911264652649663	0.2540052602310046	0.2540052602310047	-0.1739950466529041	-0.1743049120253198	-8.75721447762417e-05	0.0002926427885559773	-0.02629705330664903	-0.05732893256876673	-0.02639814542411948	0.2615939227032739	-0.02420915792110482	0.09617563479448599	-0.2071340846540277	0.2680495355668007	0.2680495355667985	0.03531423748241152	-0.0009882416241805934	0.04777003767650339	-0.009763224481595922	0.05489654263579184	-0.05900450808728204	-0.0177801618004202	-0.2305753683592597	0.1725547961234002	0.006751102519650795	0.01890078396645055	12.60166888968251	-7.638784042877302	3.619489759531954	8.34644518033706	-627.8559957501194	-89.24880366685949	-23.23538152230493	-0.8042292927586707	-1.784206888647287	-0.8516068370142791	8.233566005156597	-0.7682241228574649	3.079294618687086	-6.501803661207093	8.511353127431677	8.511353127430871	1.091607670899629	-0.0004341097609384626	1.561811656767135	-0.2952813830141712	-8.461458009169553e-08	1.164471007088262e-07	2.789121798426416e-07	6.889905627193865e-08	-2.173741791106485e-07	-1.411526919571584e-07	-2.419052465963843e-08
0.04	-0.03748847653907204	0.0551184560516997	0.9196351757264821	0.3155982848672138	-0.2962785704765578	-0.2987814830537149	-0.3935169977791926	0.2571097833384089	0.2571097833384116	-0.1735866351749049	-0.1743161219380531	0.0004686899095524214	0.0001811866162052979	-0.03447415872000452	-0.07484264780939698	-0.0349367395979641	0.3432881351167466	-0.03169460407711991	0.1263594919593694	-0.270546864003234	0.3524533452887659	0.3524533452887581	0.04629486182649926	-0.001239422994533813	0.06344119031816631	-0.01249148071186921	0.04909807435025274	-0.05368381891488738	-0.01711324319262209	-0.2261682414326634	0.1690154204476937	0.005113445193785554	0.02411828190722403	11.43142525103356	-6.779493337045587	3.547426006652063	8.15344530957516	-628.1608911774551	-86.575435803891	-23.26978119908524	-0.8618661953424601	-1.72034131456278	-0.862345360774603	8.171996753213241	-0.7237359334967979	2.940154008712892	-6.147892741100466	8.418953281552941	8.418953281552749	1.132840266922239	-0.07884601591813278	1.590077020992522	-0.2387789280023245	-1.063622628644726e-07	8.810869972029732e-08	3.458192254465863e-07	8.509714710949295e-08	-3.007572478186439e-07	-1.876712918867206e-07	-3.46757920638273e-08
0.05	-0.03787290726027728	0.054285695268109	0.9192433229740352	0.3194285660495353	-0.2966314668026051	-0.2973712928969832	-0.3965275134357997	0.2610461723695133	0.2610461723695053	-0.1730702945712838	-0.1743298718617224	0.001180759712483817	4.392417204836553e-05	-0.04235007563913269	-0.09155898217751804	-0.04342753709619319	0.4222728787086782	-0.03881285180087211	0.155513746476061	-0.3310246739868317	0.4343896949389077	0.4343896949389042	0.05691537835685546	-0.001490189847511307	0.07896148836380955	-0.01489086200835168	0.04203338846561439	-0.05172248437168576	-0.01629674583468824	-0.2215580617012926	0.1643152757202102	0.007203396700121465	0.0305251813852909	10.0005068574179	-7.460298780341186	3.683016579258799	7.683067391645627	-629.138173071002	-87.03133050889076	-23.31196545738465	-0.7411730304788007	-1.624683339958026	-0.8415667003479593	7.687417834576009	-0.6951536435144934	2.878292407236673	-5.917986125969811	8.015767928039566	8.015767928040281	1.018023314859317	0.004921713182171458	1.531311298449225	-0.2300490651288426	-1.21850812683253e-07	6.119253666886994e-08	3.837660112724868e-07	9.985263284375321e-08	-3.715487381066489e-07	-2.170675857570013e-07	-4.095982908334029e-08
0.06	-0.03833424086875897	0.05329029037243059	0.9187667382954054	0.3240338356022344	-0.2970534024962292	-0.2956745139482637	-0.4001268593920456	0.2657888833213788	0.2657888833213748	-0.1724494756086027	-0.1743455067072776	0.0020476935162909	-0.0001152383520050275	-0.04985473616936714	-0.107371470226941	-0.05188312483448616	0.4982858091963077	-0.04550247759263051	0.1836772503563293	-0.388312923929534	0.5137177294408416	0.5137177294408445	0.06719053363789532	-0.00161640737370118	0.09441399049340508	-0.01687149669114158	0.03496870258098113	-0.04976114982847568	-0.0154802484767853	-0.2169478819699091	0.1596151309927383	0.009293348206470547	0.03693208086335529	8.629752142190549	-8.150106800834306	3.818293016673368	7.102956520539847	-629.2263307217868	-87.4107281327871	-23.36067351383794	-0.7876149175628655	-1.539572050823879	-0.8553034087873934	7.577634132352923	-0.6380115470979844	2.74200388142819	-5.509980732920911	7.897290251911495	7.897290251911743	1.063768017059109	-0.05393615056068495	1.576517837782184	-0.1550296052640331	-1.370758200618651e-07	3.433625732005738e-08	4.204934177393118e-07	1.145473773105064e-07	-4.418100566717069e-07	-2.457429404247859e-07	-4.706697219191956e-08
